<?xml version="1.0" encoding="UTF-8"?>
<svg xmlns="http://www.w3.org/2000/svg" xmlns:xlink="http://www.w3.org/1999/xlink" viewBox="0 0 20 20" width="20px" height="20px">
<g id="surface16668614">
<path style=" stroke:none;fill-rule:nonzero;fill:rgb(100%,100%,100%);fill-opacity:1;" d="M 8.398438 0 C 7.742188 0 7.199219 0.542969 7.199219 1.199219 L 7.199219 2 L 4.074219 2 C 4.023438 1.992188 3.976562 1.992188 3.925781 2 L 3.199219 2 C 3.1875 2 3.175781 2 3.164062 2 C 2.941406 2.011719 2.769531 2.199219 2.78125 2.417969 C 2.792969 2.640625 2.980469 2.8125 3.199219 2.800781 L 3.636719 2.800781 L 5.074219 19 C 5.125 19.558594 5.601562 20 6.164062 20 L 13.835938 20 C 14.398438 20 14.875 19.558594 14.925781 19 L 16.363281 2.800781 L 16.800781 2.800781 C 16.945312 2.800781 17.078125 2.726562 17.152344 2.601562 C 17.222656 2.476562 17.222656 2.324219 17.152344 2.199219 C 17.078125 2.074219 16.945312 2 16.800781 2 L 12.800781 2 L 12.800781 1.199219 C 12.800781 0.542969 12.257812 0 11.601562 0 Z M 8.398438 0.800781 L 11.601562 0.800781 C 11.824219 0.800781 12 0.976562 12 1.199219 L 12 2 L 8 2 L 8 1.199219 C 8 0.976562 8.175781 0.800781 8.398438 0.800781 Z M 4.4375 2.800781 L 15.5625 2.800781 L 14.125 18.9375 C 14.113281 19.078125 13.964844 19.199219 13.835938 19.199219 L 6.164062 19.199219 C 6.035156 19.199219 5.886719 19.078125 5.875 18.9375 Z M 7.5625 3.988281 C 7.546875 3.992188 7.527344 3.996094 7.511719 4 C 7.328125 4.042969 7.195312 4.210938 7.199219 4.398438 L 7.199219 17.601562 C 7.199219 17.742188 7.273438 17.878906 7.398438 17.953125 C 7.523438 18.023438 7.675781 18.023438 7.800781 17.953125 C 7.925781 17.878906 8 17.742188 8 17.601562 L 8 4.398438 C 8.003906 4.285156 7.957031 4.171875 7.875 4.09375 C 7.789062 4.015625 7.675781 3.976562 7.5625 3.988281 Z M 9.960938 3.988281 C 9.945312 3.992188 9.929688 3.996094 9.914062 4 C 9.726562 4.042969 9.59375 4.210938 9.601562 4.398438 L 9.601562 17.601562 C 9.597656 17.742188 9.671875 17.878906 9.796875 17.953125 C 9.921875 18.023438 10.078125 18.023438 10.203125 17.953125 C 10.328125 17.878906 10.402344 17.742188 10.398438 17.601562 L 10.398438 4.398438 C 10.40625 4.285156 10.359375 4.171875 10.273438 4.09375 C 10.191406 4.015625 10.078125 3.976562 9.960938 3.988281 Z M 12.363281 3.988281 C 12.34375 3.992188 12.328125 3.996094 12.3125 4 C 12.125 4.042969 11.996094 4.210938 12 4.398438 L 12 17.601562 C 12 17.742188 12.074219 17.878906 12.199219 17.953125 C 12.324219 18.023438 12.476562 18.023438 12.601562 17.953125 C 12.726562 17.878906 12.800781 17.742188 12.800781 17.601562 L 12.800781 4.398438 C 12.804688 4.285156 12.757812 4.171875 12.675781 4.09375 C 12.589844 4.015625 12.476562 3.976562 12.363281 3.988281 Z M 12.363281 3.988281 "/>
</g>
</svg>
