<svg id="Layer_1" data-name="Layer 1" xmlns="http://www.w3.org/2000/svg" viewBox="0 0 1862 503.89"><defs><style>.cls-1{fill:#f69c01;}</style></defs><path d="M159.54,261.55H79.32V271h7.11v23.7H73V358h8.1V566.57h50.13V361.41h32.15V566.57h56.38V361.41h4.58A187.51,187.51,0,0,1,159.54,261.55Z" transform="translate(-73 -64.05)"/><path d="M606.06,293.41V269.72h4.73v-8.17H523.43a187.67,187.67,0,0,1-64.76,99.86H470.6V566.57h51.66V361.41h36.87V566.57h51.12V356.65h8.46V293.41Z" transform="translate(-73 -64.05)"/><polygon points="203.34 502.52 342.37 502.52 339 460.03 206.37 460.03 203.34 502.52"/><polygon class="cls-1" points="206.37 437.25 339.34 437.25 335.96 417 211.1 417 206.37 437.25"/><rect x="198.7" y="440.88" width="148.32" height="15.69" rx="0.87"/><path d="M406.6,355.26,396,477.76H347.88v-104a8.48,8.48,0,0,0,0-17V208.47c13.15,4,3.54,13.66,3.54,13.66,1,27.34,27.84,86.06,40,103.77S406.6,355.26,406.6,355.26Z" transform="translate(-73 -64.05)"/><path d="M285.11,355.26l10.63,122.5h48.09v-104a8.48,8.48,0,1,1,0-17V208.47c-13.15,4-3.54,13.66-3.54,13.66-1,27.34-27.84,86.06-40,103.77S285.11,355.26,285.11,355.26Z" transform="translate(-73 -64.05)"/><path class="cls-1" d="M459.61,162.22l-40.37,40.37H374.06V157.42L414.44,117a31.92,31.92,0,0,1,54.5,22.59A31.61,31.61,0,0,1,459.61,162.22Z" transform="translate(-73 -64.05)"/><path class="cls-1" d="M482.75,266.47H425.66l-32-31.94,32-31.94h57.09a31.92,31.92,0,0,1,22.57,54.51A31.55,31.55,0,0,1,482.75,266.47Z" transform="translate(-73 -64.05)"/><path class="cls-1" d="M311.89,96v57.1L343.83,185l31.94-31.94V96a31.91,31.91,0,0,0-54.51-22.56A31.51,31.51,0,0,0,311.89,96Z" transform="translate(-73 -64.05)"/><path class="cls-1" d="M228.05,162.22l40.37,40.37H313.6V157.42L273.22,117a31.92,31.92,0,0,0-54.5,22.59A31.61,31.61,0,0,0,228.05,162.22Z" transform="translate(-73 -64.05)"/><path class="cls-1" d="M204.91,266.47H262L294,234.53,262,202.59H204.91a31.92,31.92,0,0,0-22.57,54.51A31.55,31.55,0,0,0,204.91,266.47Z" transform="translate(-73 -64.05)"/><path d="M738.94,526.05l-5.23,3.25q-6.76-9-18.47-9a21.38,21.38,0,0,0-15.54,6A19.66,19.66,0,0,0,693.51,541a20.78,20.78,0,0,0,2.85,10.54,19.88,19.88,0,0,0,7.81,7.65,23.58,23.58,0,0,0,29.54-6.26l5.23,3.44a24.66,24.66,0,0,1-9.86,8.57,31.55,31.55,0,0,1-14.1,3.05q-12.15,0-20.15-7.71a25.15,25.15,0,0,1-8-18.79,26.87,26.87,0,0,1,3.74-13.81,26.49,26.49,0,0,1,10.29-10,30,30,0,0,1,14.64-3.57,31.41,31.41,0,0,1,9.81,1.55,27.6,27.6,0,0,1,8,4.05A22.13,22.13,0,0,1,738.94,526.05Z" transform="translate(-73 -64.05)"/><path d="M810.72,549.63l5.55,2.92a30.07,30.07,0,0,1-6.31,8.66,25.16,25.16,0,0,1-8.05,5,28.3,28.3,0,0,1-10.14,1.71q-12.53,0-19.59-8.21a27.7,27.7,0,0,1-7.07-18.57,27.4,27.4,0,0,1,6-17.37q7.57-9.69,20.3-9.69,13.11,0,20.93,9.93,5.55,7,5.65,17.51H771.88q.2,8.93,5.71,14.63a18.19,18.19,0,0,0,13.62,5.7,22,22,0,0,0,7.61-1.35,19.89,19.89,0,0,0,6.29-3.62A30.56,30.56,0,0,0,810.72,549.63Zm0-13.79a21.86,21.86,0,0,0-3.84-8.42,18.37,18.37,0,0,0-6.67-5.09,20.54,20.54,0,0,0-8.72-1.93,18.79,18.79,0,0,0-13,4.85q-4,3.54-6,10.59Z" transform="translate(-73 -64.05)"/><path d="M846.25,515.42h6.59v9.17a27.63,27.63,0,0,1,8.76-7.88,21.52,21.52,0,0,1,10.45-2.61A18.13,18.13,0,0,1,882.24,517a17.33,17.33,0,0,1,6.56,7.86q2.13,4.93,2.12,15.39v26.36h-6.59V542.2q0-8.85-.73-11.82a13,13,0,0,0-4.4-7.65,13.25,13.25,0,0,0-8.47-2.56,16.3,16.3,0,0,0-10.71,4,18.53,18.53,0,0,0-6.23,9.79q-.94,3.83-.95,13.94v18.78h-6.59Z" transform="translate(-73 -64.05)"/><path d="M926.79,496.4h6.59v19h10.45v5.69H933.38v45.52h-6.59V521.11h-9v-5.69h9Z" transform="translate(-73 -64.05)"/><path d="M967.21,515.42H974v7.48a23.47,23.47,0,0,1,6.35-6.61,12.54,12.54,0,0,1,7-2.19,12,12,0,0,1,5.83,1.74l-3.43,5.55a9.3,9.3,0,0,0-3.49-.89,9.51,9.51,0,0,0-6.35,2.71q-3.06,2.7-4.66,8.4-1.23,4.38-1.22,17.7v17.32h-6.74Z" transform="translate(-73 -64.05)"/><path d="M1057.82,549.63l5.56,2.92a30.09,30.09,0,0,1-6.32,8.66,25.05,25.05,0,0,1-8,5,28.24,28.24,0,0,1-10.13,1.71q-12.54,0-19.6-8.21a27.7,27.7,0,0,1-7.07-18.57,27.41,27.41,0,0,1,6-17.37q7.58-9.69,20.3-9.69,13.1,0,20.92,9.93,5.57,7,5.65,17.51H1019q.19,8.93,5.7,14.63a18.21,18.21,0,0,0,13.62,5.7,22,22,0,0,0,7.61-1.35,19.78,19.78,0,0,0,6.29-3.62A30.31,30.31,0,0,0,1057.82,549.63Zm0-13.79a21.86,21.86,0,0,0-3.83-8.42,18.37,18.37,0,0,0-6.67-5.09,20.55,20.55,0,0,0-8.73-1.93,18.77,18.77,0,0,0-12.95,4.85q-4,3.54-6,10.59Z" transform="translate(-73 -64.05)"/><path d="M1187.17,495.65v71h-6.5v-8.81a28.19,28.19,0,0,1-9.29,7.58,26,26,0,0,1-29.84-5.34,26.41,26.41,0,0,1-7.7-19.18,26,26,0,0,1,7.77-18.92,25.3,25.3,0,0,1,18.68-7.86,24.17,24.17,0,0,1,11.42,2.68,26,26,0,0,1,9,8.05V495.65Zm-26.34,24.8a19.88,19.88,0,0,0-17.56,10.3,20.77,20.77,0,0,0,0,20.69,20.18,20.18,0,0,0,7.46,7.68,19.5,19.5,0,0,0,10,2.75,20.51,20.51,0,0,0,10.24-2.73,19,19,0,0,0,7.45-7.37,21,21,0,0,0,2.62-10.49,20.42,20.42,0,0,0-5.86-14.86A19.38,19.38,0,0,0,1160.83,520.45Z" transform="translate(-73 -64.05)"/><path d="M1261.21,549.63l5.55,2.92a30.25,30.25,0,0,1-6.31,8.66,25.2,25.2,0,0,1-8.06,5,28.2,28.2,0,0,1-10.13,1.71q-12.52,0-19.59-8.21a28.06,28.06,0,0,1-1.09-35.94q7.59-9.69,20.31-9.69,13.09,0,20.91,9.93,5.57,7,5.66,17.51h-46.08q.18,8.93,5.7,14.63a18.18,18.18,0,0,0,13.62,5.7,22.08,22.08,0,0,0,7.61-1.35,20,20,0,0,0,6.29-3.62A30.82,30.82,0,0,0,1261.21,549.63Zm0-13.79a22,22,0,0,0-3.84-8.42,18.29,18.29,0,0,0-6.67-5.09,20.5,20.5,0,0,0-8.72-1.93,18.78,18.78,0,0,0-13,4.85q-4,3.54-6,10.59Z" transform="translate(-73 -64.05)"/><path d="M1360.53,495.65v6.44a16.42,16.42,0,0,0-6.22-1.55,6,6,0,0,0-3.2.78,3.41,3.41,0,0,0-1.6,1.79,24.69,24.69,0,0,0-.33,5.39v6.92h10.7v5.69h-10.7l0,45.52h-6.59V521.11h-6.73v-5.69h6.73v-8q0-5.51,1-7.86a8.08,8.08,0,0,1,3.43-3.79,11.38,11.38,0,0,1,5.86-1.43A27.87,27.87,0,0,1,1360.53,495.65Z" transform="translate(-73 -64.05)"/><path d="M1409.94,514.1a25.34,25.34,0,0,1,19.61,8.56,27.48,27.48,0,0,1-.4,37.26q-7.47,8-19.21,8t-19.26-8a27.42,27.42,0,0,1-.4-37.21A25.36,25.36,0,0,1,1409.94,514.1Zm0,6.45a19,19,0,0,0-14.12,6.07,20.28,20.28,0,0,0-5.91,14.68,20.77,20.77,0,0,0,2.69,10.36,19.12,19.12,0,0,0,7.27,7.41,20.71,20.71,0,0,0,20.13,0,19,19,0,0,0,7.27-7.41,20.77,20.77,0,0,0,2.69-10.36,20.22,20.22,0,0,0-5.93-14.68A19,19,0,0,0,1409.92,520.55Z" transform="translate(-73 -64.05)"/><path d="M1462.33,515.42h6.73v7.48a23.75,23.75,0,0,1,6.35-6.61,12.54,12.54,0,0,1,7-2.19,12,12,0,0,1,5.84,1.74l-3.44,5.55a9.25,9.25,0,0,0-3.48-.89,9.51,9.51,0,0,0-6.36,2.71q-3.06,2.7-4.66,8.4-1.21,4.38-1.22,17.7v17.32h-6.73Z" transform="translate(-73 -64.05)"/><path d="M1509.77,515.42h6.59v8.84a25.67,25.67,0,0,1,7.07-7.15,20,20,0,0,1,10.51-3,17.38,17.38,0,0,1,7.07,1.46,15.06,15.06,0,0,1,5.46,3.88,20.64,20.64,0,0,1,3.68,6.94,24.28,24.28,0,0,1,8.22-9.15A19.41,19.41,0,0,1,1569,514.1a16.6,16.6,0,0,1,9.37,2.68,16,16,0,0,1,6,7.48q2,4.82,2,14.41v28h-6.74v-28q0-8.24-1.17-11.32a10.21,10.21,0,0,0-4-5,12,12,0,0,0-6.78-1.88,14.78,14.78,0,0,0-8.75,2.82,16.34,16.34,0,0,0-5.79,7.53q-1.83,4.71-1.83,15.73v20h-6.59V540.41q0-9.27-1.15-12.59a10.53,10.53,0,0,0-4-5.32,11.65,11.65,0,0,0-6.82-2,14.79,14.79,0,0,0-8.55,2.75,16.32,16.32,0,0,0-5.88,7.42q-1.9,4.65-1.91,14.26v21.7h-6.59Z" transform="translate(-73 -64.05)"/><path d="M1667.27,515.42v51.21h-6.5v-8.81a28.19,28.19,0,0,1-9.29,7.58,26,26,0,0,1-29.85-5.34,26.44,26.44,0,0,1-7.69-19.18A26,26,0,0,1,1621.7,522a25.34,25.34,0,0,1,18.69-7.86,24.17,24.17,0,0,1,11.42,2.68,26,26,0,0,1,9,8.05v-9.41Zm-26.34,5a19.85,19.85,0,0,0-10.16,2.71,19.62,19.62,0,0,0-7.39,7.59,20.7,20.7,0,0,0,0,20.69,20.13,20.13,0,0,0,7.44,7.68,19.56,19.56,0,0,0,10.05,2.75,20.58,20.58,0,0,0,10.25-2.73,19,19,0,0,0,7.44-7.37,21,21,0,0,0,2.62-10.49,20.42,20.42,0,0,0-5.86-14.86A19.38,19.38,0,0,0,1640.93,520.45Z" transform="translate(-73 -64.05)"/><path d="M1703.84,496.4h6.59v19h10.45v5.69h-10.45v45.52h-6.59V521.11h-9v-5.69h9Z" transform="translate(-73 -64.05)"/><path d="M1749,494.33a5.44,5.44,0,0,1,0,10.87,5.14,5.14,0,0,1-3.79-1.6,5.4,5.4,0,0,1,0-7.67A5.14,5.14,0,0,1,1749,494.33Zm-3.27,21.09h6.59v51.21h-6.59Z" transform="translate(-73 -64.05)"/><path d="M1806.3,514.1a25.34,25.34,0,0,1,19.61,8.56,27.48,27.48,0,0,1-.4,37.26q-7.47,8-19.21,8t-19.26-8a27.45,27.45,0,0,1-.4-37.21A25.36,25.36,0,0,1,1806.3,514.1Zm0,6.45a19,19,0,0,0-14.12,6.07,20.28,20.28,0,0,0-5.91,14.68,20.87,20.87,0,0,0,2.69,10.36,19.12,19.12,0,0,0,7.27,7.41,20.71,20.71,0,0,0,20.13,0,19.07,19.07,0,0,0,7.28-7.41,20.87,20.87,0,0,0,2.69-10.36,20.26,20.26,0,0,0-5.93-14.68A19.05,19.05,0,0,0,1806.28,520.55Z" transform="translate(-73 -64.05)"/><path d="M1861.19,515.42h6.58v9.17a27.63,27.63,0,0,1,8.76-7.88A21.52,21.52,0,0,1,1887,514.1a18.13,18.13,0,0,1,10.19,2.92,17.36,17.36,0,0,1,6.57,7.86q2.12,4.93,2.11,15.39v26.36h-6.59V542.2q0-8.85-.73-11.82a12.94,12.94,0,0,0-4.4-7.65,13.25,13.25,0,0,0-8.47-2.56,16.3,16.3,0,0,0-10.71,4,18.53,18.53,0,0,0-6.23,9.79q-.95,3.83-1,13.94v18.78h-6.58Z" transform="translate(-73 -64.05)"/><path d="M802.08,306.17a48.17,48.17,0,0,1,48.25,48.25V456.77H825.67V354.42a23.59,23.59,0,0,0-47.17,0V456.77H753.83V354.42a23.59,23.59,0,0,0-47.17,0V456.77H682V354.42a48.29,48.29,0,0,1,48.25-48.25,47.06,47.06,0,0,1,20,4.31,48.59,48.59,0,0,1,16,11.72,50.49,50.49,0,0,1,16-11.72A46.51,46.51,0,0,1,802.08,306.17Z" transform="translate(-73 -64.05)"/><path d="M952.22,403.28V335.61h24.66v67.67a51,51,0,0,1-7.32,26.9A55.55,55.55,0,0,1,950,449.53a54.45,54.45,0,0,1-54.26,0,55.57,55.57,0,0,1-19.58-19.35,51,51,0,0,1-7.32-26.9V335.61h24.66v67.67a27.94,27.94,0,0,0,8.63,20.58,29.39,29.39,0,0,0,41.47,0A27.94,27.94,0,0,0,952.22,403.28Z" transform="translate(-73 -64.05)"/><path d="M995.38,456.77V306.48h24.67V456.77Z" transform="translate(-73 -64.05)"/><path d="M1099.13,432.11a28.25,28.25,0,0,0,3.46-.31,16.35,16.35,0,0,0,4.09-1.08l8.63,23.12a37.78,37.78,0,0,1-8.79,2.31,54.7,54.7,0,0,1-7.39.62,58.63,58.63,0,0,1-30.45-8.17,61.64,61.64,0,0,1-22-22,58.73,58.73,0,0,1-8.17-30.45l.67-89.88h24.67l-.67,28.38h38.69v24.66h-38.69v36.84a36.05,36.05,0,0,0,35.92,35.92Z" transform="translate(-73 -64.05)"/><polygon class="cls-1" points="1085.47 253.68 1085.47 278.34 1060.81 278.34 1060.81 266.01 1085.47 253.68"/><polygon points="820.25 259.23 820.25 271.56 795.59 271.56 795.59 246.9 820.25 259.23"/><rect x="1060.81" y="301.77" width="24.66" height="90.95"/><path d="M1292.05,330.83a50.71,50.71,0,0,0,0,101.42q21.89,0,38.23-17.41l18.5,16.18a75.29,75.29,0,0,1-25.67,19.19,74.08,74.08,0,0,1-31.06,6.71,72.75,72.75,0,0,1-37.92-10.18,77.08,77.08,0,0,1-27.28-27.28,75.72,75.72,0,0,1,0-75.84,77,77,0,0,1,27.28-27.28,72.75,72.75,0,0,1,37.92-10.18,74.22,74.22,0,0,1,31.06,6.7,76.42,76.42,0,0,1,25.67,19l-18.5,16.34Q1313.95,330.83,1292.05,330.83Z" transform="translate(-73 -64.05)"/><path d="M1427.7,336.06a58.57,58.57,0,0,1,30.52,8.17,61.85,61.85,0,0,1,21.89,22,58.62,58.62,0,0,1,8.17,30.44v60.28h-24.66V396.64a35.92,35.92,0,0,0-35.92-35.91h-35.76v96.19h-24.66V306.62L1391.94,319v17.11Z" transform="translate(-73 -64.05)"/><path d="M1567.21,335.91a58.59,58.59,0,0,1,30.52,8.17A62.11,62.11,0,0,1,1619.62,366a60.81,60.81,0,0,1,0,60.89,62.11,62.11,0,0,1-21.89,21.89,60.66,60.66,0,0,1-60.81,0,61.67,61.67,0,0,1-22-22,60.66,60.66,0,0,1,0-60.81,62,62,0,0,1,21.89-21.89A58.29,58.29,0,0,1,1567.21,335.91Zm25.43,85.86a35.72,35.72,0,1,0-25.28,10.48A34.42,34.42,0,0,0,1592.64,421.77Z" transform="translate(-73 -64.05)"/><polygon class="cls-1" points="1597.94 253.82 1597.94 278.49 1573.28 278.49 1573.28 266.16 1597.94 253.82"/><polygon points="1862 393.04 1837.34 393.04 1837.34 368.37 1849.67 368.37 1862 393.04"/><rect x="1573.28" y="301.92" width="24.66" height="90.95"/><path d="M1749.87,360.57a35.84,35.84,0,0,0,0,71.68q15.57,0,27-12.33l18.65,16.34q-19.43,20.65-45.63,20.66a58.16,58.16,0,0,1-30.36-8.17,62.06,62.06,0,0,1-21.9-21.89,60.68,60.68,0,0,1,0-60.82,61.93,61.93,0,0,1,21.9-22,58.25,58.25,0,0,1,30.36-8.17q26.2,0,45.63,20.81l-18.65,16.19Q1765.44,360.57,1749.87,360.57Z" transform="translate(-73 -64.05)"/><path d="M1874.42,335.91a58.59,58.59,0,0,1,30.52,8.17A62,62,0,0,1,1926.83,366a58.5,58.5,0,0,1,8.17,30.52v12.33h-94.18a36.78,36.78,0,0,0,13.1,16.88,34.44,34.44,0,0,0,20.66,6.55h38.22v24.67h-38.22a58.63,58.63,0,0,1-30.45-8.17,61.67,61.67,0,0,1-22-22,60.66,60.66,0,0,1,0-60.81,62.06,62.06,0,0,1,21.9-21.89A58.25,58.25,0,0,1,1874.42,335.91Zm-33.6,48.25h67.36a36.9,36.9,0,0,0-13-17,35.81,35.81,0,0,0-41.32,0A36.83,36.83,0,0,0,1840.82,384.16Z" transform="translate(-73 -64.05)"/></svg>