<?xml version="1.0" encoding="UTF-8"?>
<svg xmlns="http://www.w3.org/2000/svg" xmlns:xlink="http://www.w3.org/1999/xlink" viewBox="0 0 18 18" width="18px" height="18px">
<g id="surface16674468">
<path style=" stroke:none;fill-rule:nonzero;fill:rgb(100%,100%,100%);fill-opacity:1;" d="M 15.121094 1.800781 L 11.519531 1.800781 L 11.519531 1.078125 C 11.519531 0.484375 11.035156 0 10.441406 0 L 7.558594 0 C 6.964844 0 6.480469 0.484375 6.480469 1.078125 L 6.480469 1.800781 L 2.878906 1.800781 C 2.683594 1.800781 2.519531 1.960938 2.519531 2.160156 C 2.519531 2.359375 2.683594 2.519531 2.878906 2.519531 L 3.269531 2.519531 L 4.570312 17.105469 C 4.617188 17.605469 5.042969 18 5.539062 18 L 12.457031 18 C 12.957031 18 13.382812 17.605469 13.429688 17.105469 L 14.730469 2.519531 L 15.121094 2.519531 C 15.320312 2.519531 15.480469 2.359375 15.480469 2.160156 C 15.480469 1.960938 15.320312 1.800781 15.121094 1.800781 Z M 7.199219 15.839844 C 7.199219 16.039062 7.039062 16.199219 6.839844 16.199219 C 6.640625 16.199219 6.480469 16.039062 6.480469 15.839844 L 6.480469 3.960938 C 6.480469 3.761719 6.640625 3.601562 6.839844 3.601562 C 7.039062 3.601562 7.199219 3.761719 7.199219 3.960938 Z M 7.199219 1.078125 C 7.199219 0.882812 7.363281 0.71875 7.558594 0.71875 L 10.441406 0.71875 C 10.636719 0.71875 10.800781 0.882812 10.800781 1.078125 L 10.800781 1.800781 L 7.199219 1.800781 Z M 9.359375 15.839844 C 9.359375 16.039062 9.199219 16.199219 9 16.199219 C 8.800781 16.199219 8.640625 16.039062 8.640625 15.839844 L 8.640625 3.960938 C 8.640625 3.761719 8.800781 3.601562 9 3.601562 C 9.199219 3.601562 9.359375 3.761719 9.359375 3.960938 Z M 11.519531 15.839844 C 11.519531 16.039062 11.359375 16.199219 11.160156 16.199219 C 10.960938 16.199219 10.800781 16.039062 10.800781 15.839844 L 10.800781 3.960938 C 10.800781 3.761719 10.960938 3.601562 11.160156 3.601562 C 11.359375 3.601562 11.519531 3.761719 11.519531 3.960938 Z M 11.519531 15.839844 "/>
</g>
</svg>
